<svg width="230" height="38" viewBox="0 0 230 38" fill="none" xmlns="http://www.w3.org/2000/svg">
<path d="M29.5553 24.0564H33.8103C35.6041 24.0496 37.3224 23.3336 38.5901 22.0646C39.8579 20.7956 40.5723 19.0767 40.5774 17.2829V6.77347C40.5723 4.9797 39.8579 3.26075 38.5901 1.99176C37.3224 0.722769 35.6041 0.00676182 33.8103 0H2L6.72925 5.6264H33.8103C34.1129 5.62976 34.4021 5.75189 34.6154 5.96647C34.8288 6.18104 34.9493 6.47087 34.951 6.77347V17.2829C34.9493 17.5855 34.8288 17.8754 34.6154 18.0899C34.4021 18.3045 34.1129 18.4266 33.8103 18.43H17.4886L33.4643 37.4303H40.776L29.5553 24.0564Z" fill="#4FBA70"/>
<path d="M28.3058 11.2016V10.8427C28.3212 10.5728 28.2813 10.3026 28.1885 10.0486C28.0958 9.79462 27.9522 9.56224 27.7665 9.36571C27.5808 9.16917 27.357 9.01261 27.1087 8.90561C26.8604 8.7986 26.5929 8.74341 26.3225 8.74341C26.0521 8.74341 25.7846 8.7986 25.5363 8.90561C25.288 9.01261 25.0641 9.16917 24.8785 9.36571C24.6928 9.56224 24.5492 9.79462 24.4564 10.0486C24.3637 10.3026 24.3238 10.5728 24.3391 10.8427V13.2202C24.3391 13.747 24.5484 14.2523 24.921 14.6249C25.2935 14.9974 25.7988 15.2067 26.3257 15.2067C26.8525 15.2067 27.3578 14.9974 27.7304 14.6249C28.1029 14.2523 28.3122 13.747 28.3122 13.2202L28.3058 11.2016Z" fill="#4FBA70"/>
<path d="M17.6811 11.2016V10.8427C17.6811 10.3159 17.4718 9.8106 17.0992 9.43805C16.7267 9.0655 16.2214 8.8562 15.6946 8.8562C15.1677 8.8562 14.6624 9.0655 14.2899 9.43805C13.9173 9.8106 13.708 10.3159 13.708 10.8427V13.2202C13.708 13.7471 13.9173 14.2523 14.2899 14.6249C14.6624 14.9974 15.1677 15.2067 15.6946 15.2067C16.2214 15.2067 16.7267 14.9974 17.0992 14.6249C17.4718 14.2523 17.6811 13.7471 17.6811 13.2202V11.2016Z" fill="#4FBA70"/>
<path d="M64.9124 5.9275V9.2918H54.8195C54.6414 9.29503 54.4715 9.36676 54.3449 9.49208C54.2184 9.6174 54.1451 9.78666 54.1402 9.96466V23.9794H50.7759V9.96466C50.7759 9.43395 50.8805 8.90845 51.0838 8.41822C51.2871 7.928 51.585 7.48265 51.9606 7.10769C52.3362 6.73272 52.782 6.43547 53.2725 6.23296C53.7631 6.03045 54.2887 5.92665 54.8195 5.9275H64.9124Z" fill="white"/>
<path d="M81.8236 5.9275C82.3557 5.92665 82.8827 6.03083 83.3745 6.23406C83.8662 6.43729 84.313 6.73558 84.6893 7.11183C85.0655 7.48807 85.3638 7.93487 85.567 8.42662C85.7703 8.91837 85.8745 9.44539 85.8736 9.97748V19.9294C85.8745 20.4615 85.7703 20.9885 85.567 21.4803C85.3638 21.972 85.0655 22.4188 84.6893 22.7951C84.313 23.1713 83.8662 23.4696 83.3745 23.6728C82.8827 23.8761 82.3557 23.9802 81.8236 23.9794H71.5705C71.0384 23.9802 70.5114 23.8761 70.0196 23.6728C69.5279 23.4696 69.0811 23.1713 68.7048 22.7951C68.3286 22.4188 68.0303 21.972 67.8271 21.4803C67.6239 20.9885 67.5197 20.4615 67.5205 19.9294V9.96466C67.5222 8.89667 67.9463 7.87272 68.7003 7.11633C69.4543 6.35995 70.4769 5.93257 71.5449 5.9275H81.8236ZM71.5705 9.2918C71.3892 9.29347 71.2157 9.36625 71.0875 9.49448C70.9593 9.62271 70.8865 9.79614 70.8848 9.97748V19.9294C70.8865 20.1108 70.9593 20.2842 71.0875 20.4124C71.2157 20.5406 71.3892 20.6134 71.5705 20.6151H81.8236C82.005 20.6134 82.1784 20.5406 82.3066 20.4124C82.4349 20.2842 82.5076 20.1108 82.5093 19.9294V9.96466C82.5076 9.78333 82.4349 9.60989 82.3066 9.48166C82.1784 9.35344 82.005 9.28066 81.8236 9.27899L71.5705 9.2918Z" fill="white"/>
<path d="M119.504 5.92749L112.718 23.9794H109.975L103.906 10.5222L98.139 23.9794H98.0813H98.1134H95.4027L88.3345 5.92749H91.9167L96.8061 17.9172L102.01 5.92749H105.854L111.366 17.9172L115.928 5.92749H119.504Z" fill="white"/>
<path d="M122.433 0H125.797V19.9295C125.799 20.1108 125.871 20.2843 126 20.4125C126.128 20.5407 126.301 20.6135 126.483 20.6152H129.847V23.9795H126.483C125.951 23.9803 125.423 23.8762 124.932 23.6729C124.44 23.4697 123.993 23.1714 123.617 22.7952C123.241 22.4189 122.942 21.9721 122.739 21.4804C122.536 20.9886 122.432 20.4616 122.433 19.9295V0Z" fill="white"/>
<path d="M150.885 9.96466V23.9794H136.563C136.031 23.9802 135.504 23.8761 135.012 23.6728C134.52 23.4696 134.073 23.1713 133.697 22.7951C133.321 22.4188 133.022 21.972 132.819 21.4803C132.616 20.9885 132.512 20.4615 132.513 19.9294V13.2649H147.508V9.96466C147.507 9.79076 147.44 9.62366 147.321 9.49661C147.203 9.36955 147.04 9.29186 146.867 9.27898H132.513V5.92749H146.867C147.934 5.93425 148.955 6.36238 149.708 7.11858C150.46 7.87478 150.883 8.89777 150.885 9.96466ZM147.508 16.6292H135.877V19.9294C135.877 20.1113 135.949 20.2857 136.078 20.4143C136.206 20.5429 136.381 20.6151 136.563 20.6151H147.508V16.6292Z" fill="white"/>
<path d="M172.679 9.96466V23.9794H169.295V9.96466C169.294 9.79076 169.228 9.62366 169.109 9.49661C168.99 9.36955 168.828 9.29186 168.655 9.27898H158.402C158.22 9.28065 158.047 9.35343 157.919 9.48166C157.79 9.60989 157.718 9.78332 157.716 9.96466V23.9794H154.3V5.92749H168.655C169.723 5.93257 170.745 6.35995 171.499 7.11633C172.253 7.87271 172.677 8.89667 172.679 9.96466Z" fill="white"/>
<path d="M193.961 0V23.9795H179.632C179.1 23.9803 178.573 23.8762 178.081 23.6729C177.589 23.4697 177.143 23.1714 176.766 22.7952C176.39 22.4189 176.092 21.9721 175.889 21.4804C175.685 20.9886 175.581 20.4616 175.582 19.9295V9.96475C175.583 9.43374 175.688 8.9081 175.892 8.41783C176.096 7.92757 176.395 7.48228 176.771 7.10739C177.147 6.73251 177.593 6.43536 178.084 6.23293C178.575 6.0305 179.101 5.92675 179.632 5.92759H190.596V0H193.961ZM189.911 20.6152C190.092 20.6135 190.266 20.5407 190.394 20.4125C190.522 20.2843 190.595 20.1108 190.596 19.9295V9.96475C190.595 9.78342 190.522 9.60998 190.394 9.48176C190.266 9.35353 190.092 9.28075 189.911 9.27908H179.658C179.476 9.28075 179.303 9.35353 179.175 9.48176C179.046 9.60998 178.974 9.78342 178.972 9.96475V19.9295C178.974 20.1108 179.046 20.2843 179.175 20.4125C179.303 20.5407 179.476 20.6135 179.658 20.6152H189.911Z" fill="white"/>
<path d="M200.792 23.9795H197.428V20.6152H200.792V23.9795Z" fill="white"/>
<path d="M222.439 9.96466V23.9794H208.11C207.578 23.9802 207.051 23.876 206.56 23.6727C206.069 23.4694 205.622 23.171 205.247 22.7947C204.871 22.4184 204.573 21.9715 204.371 21.4798C204.168 20.9881 204.065 20.4612 204.066 19.9294V13.2649H219.074V9.96466C219.073 9.78333 219 9.60989 218.872 9.48166C218.744 9.35344 218.57 9.28066 218.389 9.27899H204.066V5.9275H218.389C218.92 5.92665 219.446 6.03041 219.937 6.23284C220.428 6.43527 220.874 6.73241 221.25 7.1073C221.626 7.48218 221.925 7.92747 222.128 8.41774C222.332 8.90801 222.438 9.43365 222.439 9.96466ZM219.074 16.6292H207.424V19.9294C207.426 20.1108 207.499 20.2842 207.627 20.4124C207.755 20.5406 207.929 20.6134 208.11 20.6151H219.074V16.6292Z" fill="white"/>
<path d="M229.174 0V3.36431H225.816V0H229.174ZM225.816 5.92759H229.174V23.9795H225.816V5.92759Z" fill="white"/>
<path d="M50.7183 28.5586H53.1534C54.8772 28.5586 55.7167 29.2763 55.7167 30.7822V31.0193C55.7167 32.16 55.2937 32.8072 54.3133 33.0636C55.2937 33.2686 55.7167 33.9158 55.7167 35.1847V36.3061C55.6779 36.7376 55.7214 37.1725 55.8448 37.5877H54.8131C54.6943 37.1715 54.6466 36.7382 54.6721 36.3061V35.1206C54.6721 34.0056 54.2107 33.5762 52.9868 33.5762H51.7628V37.5877H50.7183V28.5586ZM52.9547 32.6791C54.1402 32.6791 54.6529 32.2113 54.6529 31.186V30.9553C54.6529 29.9107 54.2043 29.475 53.1342 29.475H51.7628V32.6791H52.9547Z" fill="white"/>
<path d="M57.479 28.5586H58.5235V37.5877H57.479V28.5586Z" fill="white"/>
<path d="M60.2729 35.2103V30.9424C60.2729 29.3404 61.1829 28.4304 62.8362 28.4304C64.4895 28.4304 65.3995 29.3404 65.3995 30.9424V31.391H64.4255V30.8784C64.4002 30.4868 64.2268 30.1195 63.9406 29.8511C63.6543 29.5828 63.2767 29.4334 62.8843 29.4334C62.4919 29.4334 62.1142 29.5828 61.828 29.8511C61.5417 30.1195 61.3684 30.4868 61.3431 30.8784V35.2487C61.3684 35.6403 61.5417 36.0076 61.828 36.276C62.1142 36.5443 62.4919 36.6937 62.8843 36.6937C63.2767 36.6937 63.6543 36.5443 63.9406 36.276C64.2268 36.0076 64.4002 35.6403 64.4255 35.2487V33.6147H62.9964V32.6662H65.3995V35.2295C65.3995 36.8188 64.4895 37.7159 62.8362 37.7159C61.1829 37.7159 60.2729 36.7995 60.2729 35.2103Z" fill="white"/>
<path d="M67.0786 28.5586H68.1232V32.5509H71.1863V28.5586H72.2308V37.5877H71.1863V33.4481H68.1232V37.5877H67.0786V28.5586Z" fill="white"/>
<path d="M75.7103 29.475H73.6084V28.5586H78.8503V29.475H76.7484V37.5877H75.7103V29.475Z" fill="white"/>
<path d="M79.0103 33.2815H82.2528V34.1338H79.0103V33.2815Z" fill="white"/>
<path d="M83.6948 35.1847V30.9424C83.6948 29.3148 84.6048 28.4304 86.2581 28.4304C87.9114 28.4304 88.8214 29.3148 88.8214 30.9424V35.1847C88.8214 36.8123 87.9114 37.6967 86.2581 37.6967C84.6048 37.6967 83.6948 36.8123 83.6948 35.1847ZM87.8089 35.2487V30.8784C87.8089 30.4705 87.6469 30.0793 87.3584 29.7908C87.07 29.5024 86.6788 29.3404 86.2709 29.3404C85.863 29.3404 85.4718 29.5024 85.1834 29.7908C84.895 30.0793 84.7329 30.4705 84.7329 30.8784V35.2487C84.7329 35.6566 84.895 36.0478 85.1834 36.3363C85.4718 36.6247 85.863 36.7867 86.2709 36.7867C86.6788 36.7867 87.07 36.6247 87.3584 36.3363C87.6469 36.0478 87.8089 35.6566 87.8089 35.2487Z" fill="white"/>
<path d="M90.603 28.5586H95.0439V29.475H91.6476V32.615H94.4159V33.5121H91.6476V37.5877H90.603V28.5586Z" fill="white"/>
<path d="M96.0498 33.2815H99.2924V34.1338H96.0498V33.2815Z" fill="white"/>
<path d="M100.305 28.5586H101.343L102.625 36.2484L104.016 28.5586H105.015L106.419 36.2484L107.7 28.5586H108.642L107.111 37.5877H105.829L104.547 30.4426L103.189 37.5877H101.85L100.305 28.5586Z" fill="white"/>
<path d="M113.423 35.6654H110.59L110.142 37.5878H109.148L111.334 28.5779H112.737L114.954 37.5878H113.871L113.423 35.6654ZM113.192 34.749L111.994 29.7314L110.808 34.749H113.192Z" fill="white"/>
<path d="M117.306 33.6275L114.954 28.5586H116.082L117.889 32.4612L119.677 28.5714H120.721L118.35 33.6403V37.5877H117.306V33.6275Z" fill="white"/>
<path d="M128.437 35.6653H125.604L125.156 37.5877H124.163L126.335 28.5586H127.738L129.968 37.5877H128.898L128.437 35.6653ZM128.206 34.7489L127.008 29.7313L125.829 34.7489H128.206Z" fill="white"/>
<path d="M131.372 28.5586H132.743L135.678 35.4218V28.5586H136.646V37.5877H135.55L132.346 30.0197V37.5877H131.391L131.372 28.5586Z" fill="white"/>
<path d="M138.511 28.5586H141.074C142.791 28.5586 143.637 29.3724 143.637 31.0322V35.095C143.637 36.7611 142.804 37.5685 141.074 37.5685H138.511V28.5586ZM141.016 36.6522C142.099 36.6522 142.548 36.2036 142.548 35.1206V31.0065C142.548 29.9235 142.099 29.475 141.016 29.475H139.549V36.6522H141.016Z" fill="white"/>
<path d="M147.924 28.5586H148.962V36.6522H152.365V37.5877H147.924V28.5586Z" fill="white"/>
<path d="M157.588 35.6654H154.755L154.307 37.5878H153.313L155.505 28.5779H156.908L159.119 37.5878H158.036L157.588 35.6654ZM157.357 34.749L156.159 29.7314L154.973 34.749H157.357Z" fill="white"/>
<path d="M160.523 28.5586H161.888L164.823 35.4218V28.5586H165.784V37.5877H164.695L161.491 30.0197V37.5877H160.542L160.523 28.5586Z" fill="white"/>
<path d="M167.674 28.5586H170.238C171.949 28.5586 172.801 29.3724 172.801 31.0322V35.095C172.801 36.7611 171.961 37.5685 170.238 37.5685H167.674V28.5586ZM170.186 36.6522C171.269 36.6522 171.718 36.2036 171.718 35.1206V31.0065C171.718 29.9235 171.269 29.475 170.186 29.475H168.719V36.6522H170.186Z" fill="white"/>
<path d="M180.856 35.6654H178.023L177.575 37.5878H176.582L178.767 28.5779H180.164L182.387 37.5878H181.304L180.856 35.6654ZM180.625 34.749L179.427 29.7314L178.241 34.749H180.625Z" fill="white"/>
<path d="M183.368 35.3834V35.0245H184.349V35.3898C184.349 35.7892 184.507 36.1722 184.79 36.4546C185.072 36.7371 185.455 36.8957 185.855 36.8957C186.254 36.8957 186.637 36.7371 186.919 36.4546C187.202 36.1722 187.36 35.7892 187.36 35.3898C187.36 34.4478 186.976 34.0761 185.521 33.4161C183.836 32.6471 183.407 31.923 183.407 30.7631C183.407 29.4173 184.31 28.4497 185.893 28.4497C187.476 28.4497 188.341 29.3917 188.341 30.7759V31.0002H187.36V30.7887C187.376 30.5955 187.351 30.4012 187.285 30.2189C187.219 30.0365 187.115 29.8704 186.98 29.7319C186.844 29.5933 186.68 29.4855 186.499 29.4157C186.319 29.346 186.125 29.316 185.931 29.3276C185.743 29.3119 185.552 29.3367 185.374 29.4003C185.195 29.464 185.032 29.5649 184.896 29.6966C184.759 29.8282 184.652 29.9874 184.582 30.1636C184.512 30.3397 184.481 30.5288 184.49 30.7182C184.49 31.5961 184.887 31.955 186.354 32.6407C188.014 33.4097 188.431 34.1338 188.431 35.3577C188.431 36.7291 187.527 37.7096 185.867 37.7096C184.208 37.7096 183.368 36.7611 183.368 35.3834Z" fill="white"/>
<path d="M189.603 35.3834V35.0245H190.583V35.3898C190.583 35.7892 190.742 36.1722 191.025 36.4546C191.307 36.7371 191.69 36.8957 192.089 36.8957C192.489 36.8957 192.872 36.7371 193.154 36.4546C193.437 36.1722 193.595 35.7892 193.595 35.3898C193.595 34.4478 193.211 34.0761 191.756 33.4161C190.071 32.6471 189.641 31.923 189.641 30.7631C189.641 29.4173 190.545 28.4497 192.128 28.4497C193.711 28.4497 194.576 29.3917 194.576 30.7759V31.0002H193.621V30.7887C193.635 30.5936 193.606 30.3979 193.537 30.215C193.467 30.0321 193.359 29.8663 193.22 29.7293C193.08 29.5922 192.913 29.487 192.729 29.421C192.545 29.355 192.348 29.3297 192.153 29.3469C191.965 29.3312 191.774 29.3559 191.596 29.4196C191.417 29.4832 191.254 29.5842 191.118 29.7158C190.981 29.8474 190.875 30.0066 190.804 30.1828C190.734 30.359 190.703 30.5481 190.712 30.7374C190.712 31.6154 191.109 31.9742 192.576 32.6599C194.236 33.4289 194.653 34.153 194.653 35.377C194.653 36.7483 193.749 37.7288 192.089 37.7288C190.43 37.7288 189.603 36.7611 189.603 35.3834Z" fill="white"/>
<path d="M196.185 28.5586H197.229V37.5877H196.185V28.5586Z" fill="white"/>
<path d="M198.806 35.3834V35.0245H199.786V35.3898C199.786 35.7892 199.945 36.1722 200.227 36.4546C200.51 36.7371 200.893 36.8957 201.292 36.8957C201.691 36.8957 202.074 36.7371 202.357 36.4546C202.639 36.1722 202.798 35.7892 202.798 35.3898C202.798 34.4478 202.407 34.0761 200.952 33.4161C199.267 32.6471 198.844 31.923 198.844 30.7631C198.844 29.4173 199.748 28.4497 201.33 28.4497C202.913 28.4497 203.772 29.3917 203.772 30.7759V31.0002H202.798V30.7887C202.814 30.5906 202.786 30.3913 202.717 30.2051C202.647 30.0188 202.538 29.8501 202.396 29.7107C202.254 29.5714 202.084 29.4649 201.896 29.3987C201.709 29.3325 201.509 29.3082 201.311 29.3276C201.122 29.3119 200.932 29.3367 200.754 29.4003C200.575 29.464 200.412 29.5649 200.276 29.6966C200.139 29.8282 200.032 29.9874 199.962 30.1636C199.892 30.3397 199.861 30.5288 199.869 30.7182C199.869 31.5961 200.267 31.955 201.734 32.6407C203.394 33.4097 203.804 34.1338 203.804 35.3577C203.804 36.7291 202.907 37.7096 201.273 37.7096C199.639 37.7096 198.806 36.7611 198.806 35.3834Z" fill="white"/>
<path d="M206.976 29.475H204.88V28.5586H210.116V29.475H208.02V37.5877H206.976V29.475Z" fill="white"/>
<path d="M214.339 35.6654H211.506L211.058 37.5878H210.064L212.256 28.5779H213.659L215.87 37.5878H214.768L214.339 35.6654ZM214.108 34.749L212.91 29.7314L211.724 34.749H214.108Z" fill="white"/>
<path d="M217.274 28.5586H218.613L221.548 35.4218V28.5586H222.509V37.5877H221.42L218.216 30.0197V37.5877H217.268L217.274 28.5586Z" fill="white"/>
<path d="M226.034 29.475H223.938V28.5586H229.174V29.475H227.078V37.5877H226.034V29.475Z" fill="white"/>
</svg>
