<svg width="230" height="38" viewBox="0 0 230 38" fill="none" xmlns="http://www.w3.org/2000/svg">
<path d="M29.5553 24.0564H33.8103C35.6041 24.0496 37.3224 23.3336 38.5901 22.0646C39.8579 20.7956 40.5723 19.0767 40.5774 17.2829V6.77347C40.5723 4.9797 39.8579 3.26075 38.5901 1.99176C37.3224 0.722769 35.6041 0.00676182 33.8103 0H2L6.72925 5.6264H33.8103C34.1129 5.62976 34.4021 5.75189 34.6154 5.96647C34.8288 6.18104 34.9493 6.47087 34.951 6.77347V17.2829C34.9493 17.5855 34.8288 17.8754 34.6154 18.0899C34.4021 18.3045 34.1129 18.4266 33.8103 18.43H17.4886L33.4643 37.4303H40.776L29.5553 24.0564Z" fill="#4FBA70"/>
<path d="M28.3058 11.2016V10.8427C28.3212 10.5728 28.2813 10.3026 28.1885 10.0486C28.0958 9.79462 27.9522 9.56224 27.7665 9.36571C27.5808 9.16917 27.357 9.01261 27.1087 8.90561C26.8604 8.7986 26.5929 8.74341 26.3225 8.74341C26.0521 8.74341 25.7846 8.7986 25.5363 8.90561C25.288 9.01261 25.0641 9.16917 24.8785 9.36571C24.6928 9.56224 24.5492 9.79462 24.4564 10.0486C24.3637 10.3026 24.3238 10.5728 24.3391 10.8427V13.2202C24.3391 13.747 24.5484 14.2523 24.921 14.6249C25.2935 14.9974 25.7988 15.2067 26.3257 15.2067C26.8525 15.2067 27.3578 14.9974 27.7304 14.6249C28.1029 14.2523 28.3122 13.747 28.3122 13.2202L28.3058 11.2016Z" fill="#4FBA70"/>
<path d="M17.6811 11.2016V10.8427C17.6811 10.3159 17.4718 9.8106 17.0992 9.43805C16.7267 9.0655 16.2214 8.8562 15.6946 8.8562C15.1677 8.8562 14.6624 9.0655 14.2899 9.43805C13.9173 9.8106 13.708 10.3159 13.708 10.8427V13.2202C13.708 13.7471 13.9173 14.2523 14.2899 14.6249C14.6624 14.9974 15.1677 15.2067 15.6946 15.2067C16.2214 15.2067 16.7267 14.9974 17.0992 14.6249C17.4718 14.2523 17.6811 13.7471 17.6811 13.2202V11.2016Z" fill="#4FBA70"/>
<path d="M64.9124 5.9275V9.2918H54.8195C54.6414 9.29503 54.4715 9.36676 54.3449 9.49208C54.2184 9.6174 54.1451 9.78666 54.1402 9.96466V23.9794H50.7759V9.96466C50.7759 9.43395 50.8805 8.90845 51.0838 8.41823C51.2871 7.928 51.585 7.48265 51.9606 7.10769C52.3362 6.73272 52.782 6.43547 53.2725 6.23296C53.7631 6.03045 54.2887 5.92665 54.8195 5.9275H64.9124Z" fill="white"/>
<path d="M81.8236 5.9275C82.3557 5.92665 82.8827 6.03083 83.3745 6.23406C83.8662 6.43729 84.313 6.73558 84.6893 7.11183C85.0655 7.48807 85.3638 7.93487 85.567 8.42662C85.7703 8.91837 85.8745 9.44539 85.8736 9.97748V19.9294C85.8745 20.4615 85.7703 20.9885 85.567 21.4803C85.3638 21.972 85.0655 22.4188 84.6893 22.7951C84.313 23.1713 83.8662 23.4696 83.3745 23.6728C82.8827 23.8761 82.3557 23.9802 81.8236 23.9794H71.5705C71.0384 23.9802 70.5114 23.8761 70.0196 23.6728C69.5279 23.4696 69.0811 23.1713 68.7048 22.7951C68.3286 22.4188 68.0303 21.972 67.8271 21.4803C67.6239 20.9885 67.5197 20.4615 67.5205 19.9294V9.96466C67.5222 8.89667 67.9463 7.87272 68.7003 7.11633C69.4543 6.35995 70.4769 5.93257 71.5449 5.9275H81.8236ZM71.5705 9.2918C71.3892 9.29347 71.2157 9.36625 71.0875 9.49448C70.9593 9.62271 70.8865 9.79614 70.8848 9.97748V19.9294C70.8865 20.1108 70.9593 20.2842 71.0875 20.4124C71.2157 20.5406 71.3892 20.6134 71.5705 20.6151H81.8236C82.005 20.6134 82.1784 20.5406 82.3066 20.4124C82.4349 20.2842 82.5076 20.1108 82.5093 19.9294V9.96466C82.5076 9.78333 82.4349 9.60989 82.3066 9.48166C82.1784 9.35344 82.005 9.28066 81.8236 9.27899L71.5705 9.2918Z" fill="white"/>
<path d="M119.504 5.92749L112.718 23.9794H109.975L103.906 10.5222L98.139 23.9794H98.0813H98.1134H95.4027L88.3345 5.92749H91.9167L96.8061 17.9172L102.01 5.92749H105.854L111.366 17.9172L115.928 5.92749H119.504Z" fill="white"/>
<path d="M122.433 0H125.797V19.9295C125.799 20.1108 125.871 20.2843 126 20.4125C126.128 20.5407 126.301 20.6135 126.483 20.6152H129.847V23.9795H126.483C125.951 23.9803 125.423 23.8762 124.932 23.6729C124.44 23.4697 123.993 23.1714 123.617 22.7952C123.241 22.4189 122.942 21.9721 122.739 21.4804C122.536 20.9886 122.432 20.4616 122.433 19.9295V0Z" fill="white"/>
<path d="M150.885 9.96466V23.9794H136.563C136.031 23.9802 135.504 23.8761 135.012 23.6728C134.52 23.4696 134.073 23.1713 133.697 22.7951C133.321 22.4188 133.022 21.972 132.819 21.4803C132.616 20.9885 132.512 20.4615 132.513 19.9294V13.2649H147.508V9.96466C147.507 9.79076 147.44 9.62366 147.321 9.49661C147.203 9.36955 147.04 9.29186 146.867 9.27898H132.513V5.92749H146.867C147.934 5.93425 148.955 6.36238 149.708 7.11858C150.46 7.87478 150.883 8.89777 150.885 9.96466ZM147.508 16.6292H135.877V19.9294C135.877 20.1113 135.949 20.2857 136.078 20.4143C136.206 20.5429 136.381 20.6151 136.563 20.6151H147.508V16.6292Z" fill="white"/>
<path d="M172.679 9.96466V23.9794H169.295V9.96466C169.294 9.79076 169.228 9.62366 169.109 9.49661C168.99 9.36955 168.828 9.29186 168.655 9.27898H158.402C158.22 9.28065 158.047 9.35343 157.919 9.48166C157.79 9.60989 157.718 9.78332 157.716 9.96466V23.9794H154.3V5.92749H168.655C169.723 5.93257 170.745 6.35995 171.499 7.11633C172.253 7.87271 172.677 8.89667 172.679 9.96466Z" fill="white"/>
<path d="M193.961 0V23.9795H179.632C179.1 23.9803 178.573 23.8762 178.081 23.6729C177.589 23.4697 177.143 23.1714 176.766 22.7952C176.39 22.4189 176.092 21.9721 175.889 21.4804C175.685 20.9886 175.581 20.4616 175.582 19.9295V9.96476C175.583 9.43374 175.688 8.9081 175.892 8.41783C176.096 7.92757 176.395 7.48228 176.771 7.10739C177.147 6.73251 177.593 6.43536 178.084 6.23293C178.575 6.0305 179.101 5.92675 179.632 5.92759H190.596V0H193.961ZM189.911 20.6152C190.092 20.6135 190.266 20.5407 190.394 20.4125C190.522 20.2843 190.595 20.1108 190.596 19.9295V9.96476C190.595 9.78342 190.522 9.60999 190.394 9.48176C190.266 9.35353 190.092 9.28075 189.911 9.27908H179.658C179.476 9.28075 179.303 9.35353 179.175 9.48176C179.046 9.60999 178.974 9.78342 178.972 9.96476V19.9295C178.974 20.1108 179.046 20.2843 179.175 20.4125C179.303 20.5407 179.476 20.6135 179.658 20.6152H189.911Z" fill="white"/>
<path d="M200.792 23.9795H197.428V20.6152H200.792V23.9795Z" fill="white"/>
<path d="M222.439 9.96466V23.9794H208.11C207.578 23.9802 207.051 23.876 206.56 23.6727C206.069 23.4694 205.622 23.171 205.247 22.7947C204.871 22.4184 204.573 21.9715 204.371 21.4798C204.168 20.9881 204.065 20.4612 204.066 19.9294V13.2649H219.074V9.96466C219.073 9.78333 219 9.60989 218.872 9.48166C218.744 9.35344 218.57 9.28066 218.389 9.27899H204.066V5.9275H218.389C218.92 5.92665 219.446 6.03041 219.937 6.23284C220.428 6.43527 220.874 6.73241 221.25 7.1073C221.626 7.48218 221.925 7.92747 222.128 8.41774C222.332 8.90801 222.438 9.43365 222.439 9.96466ZM219.074 16.6292H207.424V19.9294C207.426 20.1108 207.499 20.2842 207.627 20.4124C207.755 20.5406 207.929 20.6134 208.11 20.6151H219.074V16.6292Z" fill="white"/>
<path d="M229.174 0V3.36431H225.816V0H229.174ZM225.816 5.92759H229.174V23.9795H225.816V5.92759Z" fill="white"/>
</svg>
