<svg width="40" height="41" viewBox="0 0 40 41" fill="none" xmlns="http://www.w3.org/2000/svg">
<rect y="0.5" width="40" height="40" rx="20" fill="#4FBA70"/>
<path d="M21.5 15.0002L25.5 19.0002M24 26.5002H28M26 24.5002V28.5002M16 28.5003L26.5 18.0003C26.7626 17.7377 26.971 17.4259 27.1131 17.0827C27.2553 16.7395 27.3284 16.3717 27.3284 16.0003C27.3284 15.6289 27.2553 15.2611 27.1131 14.9179C26.971 14.5747 26.7626 14.2629 26.5 14.0003C26.2374 13.7377 25.9256 13.5293 25.5824 13.3872C25.2392 13.245 24.8714 13.1719 24.5 13.1719C24.1286 13.1719 23.7608 13.245 23.4176 13.3872C23.0744 13.5293 22.7626 13.7377 22.5 14.0003L12 24.5003V28.5003H16Z" stroke="white" stroke-width="2" stroke-linecap="round" stroke-linejoin="round"/>
</svg>
