<svg width="25" height="25" viewBox="0 0 25 25" fill="none" xmlns="http://www.w3.org/2000/svg">
<path d="M10.5 14.5L21.5 3.5M10.5 14.5L13.9999 21.5C14.0438 21.5957 14.1143 21.6769 14.2029 21.7338C14.2915 21.7906 14.3946 21.8209 14.4999 21.8209C14.6053 21.8209 14.7084 21.7906 14.797 21.7338C14.8856 21.6769 14.9561 21.5957 14.9999 21.5L21.5 3.5M10.5 14.5L3.49995 11C3.40421 10.9561 3.32307 10.8857 3.26619 10.7971C3.20931 10.7084 3.17908 10.6053 3.17908 10.5C3.17908 10.3947 3.20931 10.2916 3.26619 10.2029C3.32307 10.1143 3.40421 10.0439 3.49995 10L21.5 3.5" stroke="white" stroke-width="2" stroke-linecap="round" stroke-linejoin="round"/>
</svg>
