<svg width="17" height="17" viewBox="0 0 17 17" fill="none" xmlns="http://www.w3.org/2000/svg">
<rect width="16" height="16" transform="translate(0.419678 0.5)" fill="white"/>
<path d="M5.08634 9.16654V3.83321C5.08634 3.6564 5.01611 3.48683 4.89108 3.3618C4.76606 3.23678 4.59649 3.16654 4.41968 3.16654H3.08634C2.90953 3.16654 2.73996 3.23678 2.61494 3.3618C2.48992 3.48683 2.41968 3.6564 2.41968 3.83321V8.49987C2.41968 8.67668 2.48992 8.84625 2.61494 8.97128C2.73996 9.0963 2.90953 9.16654 3.08634 9.16654H5.08634C5.79359 9.16654 6.47187 9.44749 6.97196 9.94759C7.47206 10.4477 7.75301 11.126 7.75301 11.8332V12.4999C7.75301 12.8535 7.89349 13.1926 8.14354 13.4427C8.39358 13.6927 8.73272 13.8332 9.08634 13.8332C9.43997 13.8332 9.7791 13.6927 10.0292 13.4427C10.2792 13.1926 10.4197 12.8535 10.4197 12.4999V9.16654H12.4197C12.7733 9.16654 13.1124 9.02606 13.3625 8.77602C13.6125 8.52597 13.753 8.18683 13.753 7.83321L13.0863 4.49987C12.9905 4.09089 12.8086 3.73971 12.5681 3.49923C12.3276 3.25875 12.0416 3.14199 11.753 3.16654H7.08634C6.55591 3.16654 6.0472 3.37725 5.67213 3.75233C5.29706 4.1274 5.08634 4.63611 5.08634 5.16654" fill="#121316"/>
<path d="M5.08634 9.16654V3.83321C5.08634 3.6564 5.01611 3.48683 4.89108 3.3618C4.76606 3.23678 4.59649 3.16654 4.41968 3.16654H3.08634C2.90953 3.16654 2.73996 3.23678 2.61494 3.3618C2.48992 3.48683 2.41968 3.6564 2.41968 3.83321V8.49987C2.41968 8.67668 2.48992 8.84625 2.61494 8.97128C2.73996 9.0963 2.90953 9.16654 3.08634 9.16654H5.08634ZM5.08634 9.16654C5.79359 9.16654 6.47187 9.44749 6.97196 9.94759C7.47206 10.4477 7.75301 11.126 7.75301 11.8332V12.4999C7.75301 12.8535 7.89349 13.1926 8.14354 13.4427C8.39358 13.6927 8.73272 13.8332 9.08634 13.8332C9.43997 13.8332 9.7791 13.6927 10.0292 13.4427C10.2792 13.1926 10.4197 12.8535 10.4197 12.4999V9.16654H12.4197C12.7733 9.16654 13.1124 9.02606 13.3625 8.77602C13.6125 8.52597 13.753 8.18683 13.753 7.83321L13.0863 4.49987C12.9905 4.09089 12.8086 3.73971 12.5681 3.49923C12.3276 3.25875 12.0416 3.14199 11.753 3.16654H7.08634C6.55591 3.16654 6.0472 3.37725 5.67213 3.75233C5.29706 4.1274 5.08634 4.63611 5.08634 5.16654" stroke="black" stroke-linecap="round" stroke-linejoin="round"/>
</svg>
