<svg width="16" height="17" viewBox="0 0 16 17" fill="none" xmlns="http://www.w3.org/2000/svg">
<rect width="16" height="16" transform="translate(0 0.5)" fill="white"/>
<path d="M4.66667 9.16678V3.83345C4.66667 3.65664 4.59643 3.48707 4.4714 3.36205C4.34638 3.23702 4.17681 3.16678 4 3.16678H2.66667C2.48986 3.16678 2.32029 3.23702 2.19526 3.36205C2.07024 3.48707 2 3.65664 2 3.83345V8.50012C2 8.67693 2.07024 8.8465 2.19526 8.97152C2.32029 9.09655 2.48986 9.16678 2.66667 9.16678H4.66667C5.37391 9.16678 6.05219 9.44774 6.55228 9.94783C7.05238 10.4479 7.33333 11.1262 7.33333 11.8335V12.5001C7.33333 12.8537 7.47381 13.1929 7.72386 13.4429C7.97391 13.693 8.31304 13.8335 8.66667 13.8335C9.02029 13.8335 9.35943 13.693 9.60948 13.4429C9.85952 13.1929 10 12.8537 10 12.5001V9.16678H12C12.3536 9.16678 12.6928 9.02631 12.9428 8.77626C13.1929 8.52621 13.3333 8.18707 13.3333 7.83345L12.6667 4.50012C12.5708 4.09113 12.3889 3.73996 12.1484 3.49947C11.908 3.25899 11.6219 3.14224 11.3333 3.16678H6.66667C6.13623 3.16678 5.62753 3.3775 5.25245 3.75257C4.87738 4.12764 4.66667 4.63635 4.66667 5.16678" fill="white"/>
<path d="M4.66667 9.16678V3.83345C4.66667 3.65664 4.59643 3.48707 4.4714 3.36205C4.34638 3.23702 4.17681 3.16678 4 3.16678H2.66667C2.48986 3.16678 2.32029 3.23702 2.19526 3.36205C2.07024 3.48707 2 3.65664 2 3.83345V8.50012C2 8.67693 2.07024 8.8465 2.19526 8.97152C2.32029 9.09655 2.48986 9.16678 2.66667 9.16678H4.66667ZM4.66667 9.16678C5.37391 9.16678 6.05219 9.44774 6.55228 9.94783C7.05238 10.4479 7.33333 11.1262 7.33333 11.8335V12.5001C7.33333 12.8537 7.47381 13.1929 7.72386 13.4429C7.97391 13.693 8.31304 13.8335 8.66667 13.8335C9.02029 13.8335 9.35943 13.693 9.60948 13.4429C9.85952 13.1929 10 12.8537 10 12.5001V9.16678H12C12.3536 9.16678 12.6928 9.02631 12.9428 8.77626C13.1929 8.52621 13.3333 8.18707 13.3333 7.83345L12.6667 4.50012C12.5708 4.09113 12.3889 3.73996 12.1484 3.49947C11.908 3.25899 11.6219 3.14224 11.3333 3.16678H6.66667C6.13623 3.16678 5.62753 3.3775 5.25245 3.75257C4.87738 4.12764 4.66667 4.63635 4.66667 5.16678" stroke="black" stroke-linecap="round" stroke-linejoin="round"/>
</svg>
