<svg width="17" height="17" viewBox="0 0 17 17" fill="none" xmlns="http://www.w3.org/2000/svg">
<path d="M5.08634 7.83341V13.1667C5.08634 13.3436 5.01611 13.5131 4.89108 13.6382C4.76606 13.7632 4.59649 13.8334 4.41968 13.8334H3.08634C2.90953 13.8334 2.73996 13.7632 2.61494 13.6382C2.48992 13.5131 2.41968 13.3436 2.41968 13.1667V8.50008C2.41968 8.32327 2.48992 8.1537 2.61494 8.02868C2.73996 7.90365 2.90953 7.83341 3.08634 7.83341H5.08634ZM5.08634 7.83341C5.79359 7.83341 6.47187 7.55246 6.97196 7.05237C7.47206 6.55227 7.75301 5.87399 7.75301 5.16675V4.50008C7.75301 4.14646 7.89349 3.80732 8.14354 3.55727C8.39358 3.30722 8.73272 3.16675 9.08634 3.16675C9.43997 3.16675 9.7791 3.30722 10.0292 3.55727C10.2792 3.80732 10.4197 4.14646 10.4197 4.50008V7.83341H12.4197C12.7733 7.83341 13.1124 7.97389 13.3625 8.22394C13.6125 8.47399 13.753 8.81313 13.753 9.16675L13.0863 12.5001C12.9905 12.9091 12.8086 13.2602 12.5681 13.5007C12.3276 13.7412 12.0416 13.858 11.753 13.8334H7.08634C6.55591 13.8334 6.0472 13.6227 5.67213 13.2476C5.29706 12.8726 5.08634 12.3638 5.08634 11.8334" stroke="black" stroke-linecap="round" stroke-linejoin="round"/>
</svg>
