<svg width="16" height="17" viewBox="0 0 16 17" fill="none" xmlns="http://www.w3.org/2000/svg">
<rect width="16" height="16" transform="translate(0 0.5)" fill="white"/>
<path d="M4.66667 7.83317V13.1665C4.66667 13.3433 4.59643 13.5129 4.4714 13.6379C4.34638 13.7629 4.17681 13.8332 4 13.8332H2.66667C2.48986 13.8332 2.32029 13.7629 2.19526 13.6379C2.07024 13.5129 2 13.3433 2 13.1665V8.49984C2 8.32303 2.07024 8.15346 2.19526 8.02843C2.32029 7.90341 2.48986 7.83317 2.66667 7.83317H4.66667C5.37391 7.83317 6.05219 7.55222 6.55228 7.05212C7.05238 6.55202 7.33333 5.87375 7.33333 5.1665V4.49984C7.33333 4.14622 7.47381 3.80708 7.72386 3.55703C7.97391 3.30698 8.31304 3.1665 8.66667 3.1665C9.02029 3.1665 9.35943 3.30698 9.60948 3.55703C9.85952 3.80708 10 4.14622 10 4.49984V7.83317H12C12.3536 7.83317 12.6928 7.97365 12.9428 8.22369C13.1929 8.47374 13.3333 8.81288 13.3333 9.1665L12.6667 12.4998C12.5708 12.9088 12.3889 13.26 12.1484 13.5005C11.908 13.741 11.6219 13.8577 11.3333 13.8332H6.66667C6.13623 13.8332 5.62753 13.6225 5.25245 13.2474C4.87738 12.8723 4.66667 12.3636 4.66667 11.8332" fill="#121316"/>
<path d="M4.66667 7.83317V13.1665C4.66667 13.3433 4.59643 13.5129 4.4714 13.6379C4.34638 13.7629 4.17681 13.8332 4 13.8332H2.66667C2.48986 13.8332 2.32029 13.7629 2.19526 13.6379C2.07024 13.5129 2 13.3433 2 13.1665V8.49984C2 8.32303 2.07024 8.15346 2.19526 8.02843C2.32029 7.90341 2.48986 7.83317 2.66667 7.83317H4.66667ZM4.66667 7.83317C5.37391 7.83317 6.05219 7.55222 6.55228 7.05212C7.05238 6.55202 7.33333 5.87375 7.33333 5.1665V4.49984C7.33333 4.14622 7.47381 3.80708 7.72386 3.55703C7.97391 3.30698 8.31304 3.1665 8.66667 3.1665C9.02029 3.1665 9.35943 3.30698 9.60948 3.55703C9.85952 3.80708 10 4.14622 10 4.49984V7.83317H12C12.3536 7.83317 12.6928 7.97365 12.9428 8.22369C13.1929 8.47374 13.3333 8.81288 13.3333 9.1665L12.6667 12.4998C12.5708 12.9088 12.3889 13.26 12.1484 13.5005C11.908 13.741 11.6219 13.8577 11.3333 13.8332H6.66667C6.13623 13.8332 5.62753 13.6225 5.25245 13.2474C4.87738 12.8723 4.66667 12.3636 4.66667 11.8332" stroke="black" stroke-linecap="round" stroke-linejoin="round"/>
</svg>
