<svg width="220" height="174" viewBox="0 0 220 174" fill="none" xmlns="http://www.w3.org/2000/svg">
<path d="M106.835 174C134.216 174 156.414 151.803 156.414 124.421C156.414 97.0392 134.216 74.842 106.835 74.842C79.453 74.842 57.2557 97.0392 57.2557 124.421C57.2557 151.803 79.453 174 106.835 174Z" fill="#4FBA70"/>
<path d="M131.245 103.495C131.87 104.006 122.61 116.467 110.565 131.314L103.255 140.177L102.252 141.389L101.191 140.291C91.7222 130.576 85.3401 123.379 85.7947 122.925C86.2492 122.47 93.4644 128.89 103.161 138.302L101.115 138.511L108.274 129.553C120.318 114.611 130.601 102.983 131.245 103.495Z" fill="white"/>
<path d="M177.264 104.423C175.786 99.2148 169.026 99.7262 169.026 99.7262L169.196 103.343C173.116 102.661 175.54 107.244 175.54 107.244L177.264 104.423Z" fill="#4FBA70"/>
<path d="M33.6399 115.369C32.1817 110.161 25.402 110.653 25.402 110.653L25.5913 114.289C29.5115 113.608 31.9355 118.19 31.9355 118.19L33.6399 115.369Z" fill="#F4F5F6"/>
<path d="M112.743 43.3106C120.602 45.6968 125.488 36.6445 125.488 36.6445L120.716 33.9175C118.368 39.4663 110.527 38.8224 110.527 38.8224L112.743 43.3106Z" fill="#F4F5F6"/>
<path d="M69.1672 53.0636C65.5122 53.4613 65.0767 58.0442 65.0767 58.0442L67.5196 58.3283C67.5196 55.6391 70.8716 54.5407 70.8716 54.5407L69.1672 53.0636Z" fill="#4FBA70"/>
<path d="M219.798 86.6212C220.328 82.9852 216.01 81.4134 216.01 81.4134L215.12 83.7048C217.734 84.3676 217.98 87.8901 217.98 87.8901L219.798 86.6212Z" fill="#F4F5F6"/>
<path d="M90.4907 5.20788C91.021 1.57183 86.7032 0 86.7032 0L85.8131 2.31041C88.4265 2.97323 88.6727 6.47671 88.6727 6.47671L90.4907 5.20788Z" fill="#4FBA70"/>
<path d="M0.195884 63.8581C-0.447999 69.5394 7.08922 70.9408 7.08922 70.9408L8.45274 67.1532C3.92662 66.7366 3.28272 61.4719 3.28272 61.4719L0.195884 63.8581Z" fill="#4FBA70"/>
<path d="M168.287 43.197C171.961 43.4053 173.135 38.9549 173.135 38.9549L170.768 38.2732C170.332 40.9245 166.848 41.4737 166.848 41.4737L168.287 43.197Z" fill="#4FBA70"/>
<path d="M188.343 58.1578C187.358 58.4339 186.332 58.5301 185.313 58.4418C184.294 58.5323 183.267 58.436 182.283 58.1578C184.282 57.7538 186.343 57.7538 188.343 58.1578Z" fill="#F4F5F6"/>
<path d="M191.562 49.9199C191.941 51.9476 191.941 54.028 191.562 56.0557C191.158 54.0304 191.158 51.9452 191.562 49.9199Z" fill="#F4F5F6"/>
<path d="M194.97 57.9495C195.955 57.6733 196.982 57.5771 198.001 57.6654C199.019 57.575 200.046 57.6713 201.031 57.9495C199.031 58.3535 196.97 58.3535 194.97 57.9495Z" fill="#F4F5F6"/>
<path d="M191.77 66.2063C191.366 64.1747 191.366 62.0833 191.77 60.0516C192.149 62.0857 192.149 64.1722 191.77 66.2063Z" fill="#F4F5F6"/>
<path d="M196.656 62.7597C196.542 62.8544 195.955 62.362 195.349 61.6613C194.743 60.9606 194.384 60.2788 194.497 60.1842C194.611 60.0895 195.217 60.5629 195.804 61.2825C196.391 62.0022 196.789 62.5514 196.656 62.7597Z" fill="#F4F5F6"/>
<path d="M196.372 53.2908C196.486 53.4234 196.088 54.0105 195.463 54.6354C194.838 55.2604 194.251 55.677 194.137 55.5633C194.024 55.4497 194.421 54.8437 195.046 54.2188C195.671 53.5938 196.258 53.2908 196.372 53.2908Z" fill="#F4F5F6"/>
<path d="M189.441 55.6959C189.327 55.8285 188.759 55.5255 188.172 55.0331C187.585 54.5407 187.206 54.0483 187.301 53.9347C187.395 53.8211 187.964 54.1051 188.551 54.5786C189.138 55.052 189.535 55.5823 189.441 55.6959Z" fill="#F4F5F6"/>
<path d="M189.156 59.8243C189.289 59.919 188.929 60.5061 188.361 61.131C187.793 61.756 187.244 62.1537 187.13 62.0401C187.016 61.9264 187.357 61.3393 187.925 60.7333C188.494 60.1273 189.043 59.7107 189.156 59.8243Z" fill="#F4F5F6"/>
<path d="M23.3568 41.2653C21.357 41.6693 19.2966 41.6693 17.2968 41.2653C18.2815 40.9892 19.3079 40.8929 20.3268 40.9812C21.3457 40.8908 22.3725 40.9871 23.3568 41.2653Z" fill="#4FBA70"/>
<path d="M26.5759 33.0274C26.98 35.0591 26.98 37.1505 26.5759 39.1822C26.1718 37.1505 26.1718 35.0591 26.5759 33.0274Z" fill="#4FBA70"/>
<path d="M30.0038 41.076C32.0036 40.672 34.064 40.672 36.0639 41.076C34.064 41.48 32.0036 41.48 30.0038 41.076Z" fill="#4FBA70"/>
<path d="M26.7844 49.3139C26.3803 47.2886 26.3803 45.2034 26.7844 43.1781C27.1884 45.2034 27.1884 47.2886 26.7844 49.3139Z" fill="#4FBA70"/>
<path d="M31.6894 45.7157C31.5568 45.8294 30.9697 45.337 30.3826 44.6173C29.7956 43.8977 29.3979 43.2538 29.5304 43.1402C29.663 43.0266 30.2311 43.5379 30.8372 44.2386C31.4432 44.9393 31.803 45.7157 31.6894 45.7157Z" fill="#4FBA70"/>
<path d="M31.4053 36.4362C31.5189 36.5499 31.1023 37.1559 30.4963 37.7808C29.8902 38.4057 29.2842 38.8034 29.1706 38.6898C29.057 38.5762 29.4547 37.9891 30.0796 37.3642C30.7046 36.7392 31.2916 36.2469 31.4053 36.4362Z" fill="#4FBA70"/>
<path d="M24.4554 38.8224C24.3607 38.936 23.7926 38.6519 23.2055 38.1595C22.6184 37.6672 22.2207 37.1748 22.3343 37.0422C22.448 36.9097 22.9972 37.2127 23.5842 37.7051C24.1713 38.1974 24.569 38.6898 24.4554 38.8224Z" fill="#4FBA70"/>
<path d="M24.1898 42.9319C24.3034 43.0455 23.9436 43.6326 23.3944 44.2575C22.8452 44.8825 22.2771 45.2802 22.1445 45.1665C22.0119 45.0529 22.3907 44.4658 22.9399 43.8598C23.4891 43.2538 24.0572 42.8183 24.1898 42.9319Z" fill="#4FBA70"/>
</svg>
