<svg width="216" height="153" viewBox="0 0 216 153" fill="none" xmlns="http://www.w3.org/2000/svg">
<g clip-path="url(#clip0_420_5475)">
<rect width="216" height="152" transform="translate(0 0.5)" fill="white"/>
<path d="M47.875 85.4473H75.4715" stroke="#838795" stroke-linecap="round" stroke-linejoin="round"/>
<path d="M16.2159 85.4473H44.2384" stroke="#838795" stroke-linecap="round" stroke-linejoin="round"/>
<path d="M1.28735 85.4473H9.90376" stroke="#838795" stroke-linecap="round" stroke-linejoin="round"/>
<path d="M23.9473 100.741H75.3618" stroke="#838795" stroke-linecap="round" stroke-linejoin="round"/>
<path d="M9.90332 100.741H16.2155" stroke="#838795" stroke-linecap="round" stroke-linejoin="round"/>
<path d="M46.958 116.045H75.2534" stroke="#838795" stroke-linecap="round" stroke-linejoin="round"/>
<path d="M18.5205 116.045H42.7753" stroke="#838795" stroke-linecap="round" stroke-linejoin="round"/>
<path d="M43.0811 131.338H75.1442" stroke="#838795" stroke-linecap="round" stroke-linejoin="round"/>
<path d="M27.1366 131.338H38.5269" stroke="#838795" stroke-linecap="round" stroke-linejoin="round"/>
<path d="M137.37 131.896H57.0155L61.0452 84.8677H141.4L137.37 131.896Z" fill="#4FBA70" stroke="#838795" stroke-linecap="round" stroke-linejoin="round"/>
<path d="M141.399 84.8789H61.0449" stroke="#838795" stroke-linecap="round" stroke-linejoin="round"/>
<path d="M137.37 131.896H57.0155L84.481 105.277L98.4376 117.416L114.775 105.043L137.37 131.896Z" fill="#4FBA70" stroke="#838795" stroke-linecap="round" stroke-linejoin="round"/>
<path d="M141.399 84.8677L114.775 105.043L98.4373 117.416L84.4807 105.277L61.0449 84.8677H141.399Z" fill="#4FBA70" stroke="#838795" stroke-linecap="round" stroke-linejoin="round"/>
<path d="M148.754 58.0155V75.605L195.898 38.5088L148.754 58.0155Z" fill="#4FBA70" stroke="#838795" stroke-linecap="round" stroke-linejoin="round"/>
<path d="M148.754 58.0154L196.98 37.9067L131.128 44.8734L148.754 58.0154Z" fill="#4FBA70" stroke="#838795" stroke-linecap="round" stroke-linejoin="round"/>
<path d="M154.421 61.6603L177.125 78.8039L196.979 37.9067L154.421 61.6603Z" fill="#4FBA70" stroke="#838795" stroke-linecap="round" stroke-linejoin="round"/>
<path d="M154.422 61.6604L148.754 75.6049L160.832 66.4981L154.422 61.6604Z" fill="#4FBA70" stroke="#838795" stroke-linecap="round" stroke-linejoin="round"/>
<path d="M-30.1053 203.814C-19.9491 172.86 -21.7729 154.256 -5.28266 124.271C-2.00646 118.208 14.5821 89.516 38.1489 79.2834C50.4019 73.9664 58.1992 81.9028 55.0432 87.5208C47.9993 100.027 22.1282 85.0351 47.9993 70.2323C71.9374 56.5441 122.893 83.3073 146.777 75.6273" stroke="#838795" stroke-linecap="round" stroke-linejoin="round" stroke-dasharray="2 4"/>
<path d="M148.819 74.8581C149.158 74.7131 149.486 74.5571 149.813 74.3899" stroke="#838795" stroke-linecap="round" stroke-linejoin="round"/>
</g>
<defs>
<clipPath id="clip0_420_5475">
<rect width="216" height="152" fill="white" transform="translate(0 0.5)"/>
</clipPath>
</defs>
</svg>
